<?xml version="1.0" encoding="utf-8"?>
<!-- Generator: Adobe Illustrator 15.0.0, SVG Export Plug-In . SVG Version: 6.00 Build 0)  -->
<!DOCTYPE svg PUBLIC "-//W3C//DTD SVG 1.1//EN" "http://www.w3.org/Graphics/SVG/1.1/DTD/svg11.dtd">
<svg version="1.1" id="Layer_1" xmlns="http://www.w3.org/2000/svg" xmlns:xlink="http://www.w3.org/1999/xlink" x="0px" y="0px"
	 width="32px" height="32px" viewBox="15.5 16.5 32 32" enable-background="new 15.5 16.5 32 32" xml:space="preserve">
<path fill="#FFFFFF" d="M37.017,25.045c-0.032,0-0.192,0.234-0.223,0.236c-0.031-0.002-0.191,0.219-0.223,0.219H26.153
	c-0.032,0-0.062-0.221-0.093-0.218c-0.031-0.003-0.184-0.123-0.215-0.123c-0.675,0-1.345,0.433-1.345,1.108v1.958
	c0,0.675,0.825,1.222,1.5,1.222s1.5-0.547,1.5-1.222V27.5h3v10h-1.566c-0.675,0-1.222,0.324-1.222,1c0,0.674,0.547,1,1.222,1h2.449
	c0.002,0,0.005,0,0.006,0c0.002,0,0.005,0,0.007,0h2.45c0.675,0,1.223-0.326,1.223-1c0-0.676-0.548-1-1.223-1H32.5v-10h3v0.726
	c0,0.675,0.825,1.222,1.5,1.222s1.5-0.547,1.5-1.222v-1.958C38.5,25.592,37.691,25.045,37.017,25.045z"/>
</svg>
