<?xml version="1.0" encoding="utf-8"?>
<!-- Generator: Adobe Illustrator 15.0.0, SVG Export Plug-In . SVG Version: 6.00 Build 0)  -->
<!DOCTYPE svg PUBLIC "-//W3C//DTD SVG 1.1//EN" "http://www.w3.org/Graphics/SVG/1.1/DTD/svg11.dtd">
<svg version="1.1" id="Layer_1" xmlns="http://www.w3.org/2000/svg" xmlns:xlink="http://www.w3.org/1999/xlink" x="0px" y="0px"
	 width="9.889px" height="9.896px" viewBox="0 0 9.889 9.896" enable-background="new 0 0 9.889 9.896" xml:space="preserve">
<path id="rect11874_3_" fill="#FFFFFF" d="M1.376,0.001c-0.072-0.008-0.14,0.015-0.189,0.062L0.061,1.19
	c-0.1,0.099-0.072,0.281,0.051,0.404l3.352,3.354L0.112,8.3c-0.124,0.124-0.15,0.306-0.051,0.405L1.187,9.83
	C1.286,9.93,1.469,9.915,1.591,9.793L4.943,6.44l3.353,3.353C8.419,9.916,8.602,9.93,8.701,9.83l1.125-1.125
	c0.099-0.1,0.072-0.281-0.051-0.405L6.424,4.948l3.354-3.354c0.122-0.122,0.148-0.306,0.05-0.404L8.702,0.064
	c-0.1-0.099-0.282-0.072-0.405,0.051L4.943,3.468L1.591,0.115C1.53,0.052,1.449,0.01,1.376,0.001z"/>
</svg>
